<svg width="577" height="291" viewBox="0 0 577 291" fill="none" xmlns="http://www.w3.org/2000/svg">
<path d="M146.213 82.192C139.328 72.337 130.83 64.839 120.709 59.699C110.594 54.564 99.5309 52 87.5099 52C74.6699 52 62.8289 54.464 51.9939 59.392C41.1589 64.319 31.3259 71.929 22.4959 82.193C16.9469 88.565 12.5589 94.955 9.32193 101.377C6.08993 107.8 3.71793 114.732 2.23593 122.174C1.20693 127.32 0.540924 132.553 0.221924 137.87V152.12C1.48792 174.033 8.69692 192.891 21.8789 208.682C29.7859 218.028 39.2349 225.268 50.2269 230.403C61.2129 235.538 73.2359 238.102 86.2809 238.102C97.3729 238.102 108.435 235.431 119.482 230.094C130.519 224.758 139.224 217.613 145.589 208.682H146.212V232.407H184.876V57.543H146.212V82.192H146.213ZM138.435 171.472C134.187 179.429 128.154 185.701 120.359 190.264C112.564 194.844 103.746 197.123 93.9039 197.123C79.7419 197.123 67.5939 192.246 57.4389 182.485C47.2869 172.731 42.2109 160.765 42.2109 146.592C42.2109 131.081 47.1129 118.27 56.9029 108.151C66.6979 98.039 79.2349 92.977 94.5099 92.977C101.797 92.977 108.569 94.287 114.823 96.908C121.077 99.528 126.415 103.145 130.821 107.765C135.233 112.39 138.665 117.856 141.128 124.177C143.583 130.493 144.823 137.347 144.823 144.739C144.824 154.605 142.687 163.515 138.435 171.472Z" fill="#0089FF"/>
<path d="M0 145.053C0 147.447 0.0880072 149.795 0.223007 152.119V137.869C0.0800072 140.247 0 142.641 0 145.053Z" fill="#0089FF"/>
<path d="M369.113 98.5992C365.322 91.4662 360.949 85.3792 356.021 80.3452C347.291 70.3832 337.818 63.1652 327.597 58.6972C317.376 54.2292 305.699 52.0012 292.55 52.0012C267.896 52.0012 249.206 61.4472 236.476 80.3462H235.699V57.5432H197.34V290.792H239.246V213.451H239.859C252.701 229.891 270.261 238.1 292.55 238.1C304.874 238.1 316.446 235.636 327.284 230.708C338.124 225.78 347.548 218.921 355.561 210.141C363.571 201.356 369.68 191.371 373.893 180.178C378.104 168.985 380.211 157.276 380.211 145.052C380.211 137.039 379.307 129.076 377.518 121.17C375.717 113.265 372.92 105.738 369.113 98.5992ZM331.605 171.085C327.138 179.099 320.923 185.442 312.96 190.112C305.001 194.794 296.192 197.123 286.538 197.123C280.89 197.123 275.085 195.947 269.126 193.578C263.177 191.216 257.827 187.984 253.105 183.874C242.222 174.12 236.777 161.18 236.777 145.053C236.777 135.601 239.013 126.871 243.476 118.859C247.945 110.851 254.089 104.53 261.892 99.9102C269.695 95.2912 278.429 92.9782 288.08 92.9782C297.428 92.9782 305.953 95.3632 313.65 100.145C321.357 104.916 327.39 111.31 331.761 119.324C336.122 127.337 338.304 135.808 338.304 144.74C338.305 154.292 336.072 163.078 331.605 171.085Z" fill="#0089FF"/>
<path d="M569.918 109.39C565.336 98.14 558.838 88.201 550.41 79.577C541.984 70.943 532.189 64.195 521.039 59.318C509.881 54.441 497.932 52 485.185 52C472.033 52 459.742 54.385 448.337 59.161C436.931 63.937 426.907 70.562 418.265 79.034C409.634 87.507 402.872 97.423 397.992 108.767C393.113 120.118 390.674 132.313 390.674 145.36C390.674 161.896 394.854 177.306 403.24 191.579C411.613 205.852 422.916 217.175 437.156 225.552C451.396 233.918 466.783 238.101 483.338 238.101C495.879 238.101 507.822 235.766 519.188 231.096C530.545 226.42 540.618 219.717 549.403 210.988C558.198 202.259 564.956 192.297 569.686 181.103C574.415 169.904 576.778 157.988 576.778 145.361C576.777 132.622 574.488 120.628 569.918 109.39ZM527.951 171.393C523.539 179.406 517.433 185.7 509.637 190.263C501.848 194.843 493.082 197.122 483.338 197.122C474.109 197.122 465.615 194.809 457.883 190.189C450.139 185.57 444.037 179.231 439.572 171.162C435.111 163.099 432.881 154.498 432.881 145.359C432.881 130.874 437.707 118.756 447.34 108.996C451.858 104.068 457.418 100.166 464.029 97.293C470.644 94.415 477.084 92.977 483.338 92.977C492.67 92.977 501.285 95.317 509.186 99.982C517.082 104.663 523.282 111.057 527.795 119.171C532.309 127.279 534.559 136.015 534.559 145.359C534.558 154.706 532.361 163.38 527.951 171.393Z" fill="#0089FF"/>
</svg>
