<svg width="229" height="290" viewBox="0 0 229 290" fill="none" xmlns="http://www.w3.org/2000/svg">
<path d="M228.23 137.54V45.277C228.23 20.27 207.961 0 182.959 0L45.27 22.678C20.262 22.678 0 42.948 0 67.956V205.643C0 230.645 20.262 250.915 45.27 250.915H182.959C207.961 250.915 228.23 230.644 228.23 205.643V151.79C228.095 149.465 228.007 147.117 228.007 144.724C228.008 142.312 228.088 139.918 228.23 137.54ZM175.027 221.225C159.071 232.234 139.797 237.739 117.238 237.739C84.749 237.739 54.753 226.044 27.238 202.644L56.641 172.919C74.836 192.464 95.832 202.231 119.577 202.231C128.686 202.231 137.114 200.304 144.848 196.459C154.52 191.796 159.333 185.355 159.333 177.103C159.333 165.03 150.527 157.341 132.902 154.038L108.557 149.408C86.808 145.273 70.706 140.048 60.257 133.719C44.582 124.081 36.717 110.325 36.717 92.423C36.717 72.054 44.991 55.813 61.499 43.695C76.089 32.685 93.978 27.18 115.164 27.18C142.136 27.18 168.559 36.412 194.441 54.843L169.993 84.979C152.317 70.115 134.344 62.687 116.125 62.687C107.284 62.687 99.278 64.626 92.1 68.471C83.535 73.151 79.253 79.608 79.253 87.877C79.253 98.613 88.045 105.622 105.682 108.943L149.011 117.189C184.256 123.785 201.868 141.552 201.868 170.452C201.869 191.924 192.918 208.838 175.027 221.225Z" fill="#0FD186"/>
</svg>
